<svg width="650" height="631" viewBox="0 0 650 631" fill="none" xmlns="http://www.w3.org/2000/svg">
<path fill-rule="evenodd" clip-rule="evenodd" d="M278.663 9.68401C271.619 15.01 257.531 25.962 247.356 34.02C237.181 42.078 213.474 60.22 194.675 74.335C175.875 88.45 159.645 101.236 158.608 102.749C157.571 104.262 154.197 111.575 151.111 119C141.233 142.768 116.741 201.24 98.557 244.47C78.996 290.975 80.875 287.748 61.258 308.508C44.498 326.245 39.66 332.186 38.464 336.5C37.855 338.7 33.494 358.275 28.775 380C19.874 420.971 11.311 458.321 4.157 487.383L0 504.265L2.198 508.383C3.407 510.647 16.813 526.675 31.989 544C47.165 561.325 68.698 586.3 79.84 599.5C102.49 626.333 102.391 626.23 107.893 628.712C111.653 630.408 122.641 630.514 322.356 630.767C446.676 630.924 535.577 630.657 539.502 630.113C543.157 629.607 547.803 628.407 549.827 627.447C552.701 626.083 563.725 612.916 600.181 567.302C625.852 535.183 647.506 507.563 648.3 505.924C650.199 502.008 649.503 498.75 639.454 464.5C635.097 449.65 618.653 392.5 602.913 337.5C587.173 282.5 573.588 235.863 572.724 233.863C570.775 229.347 567.721 226.404 537.856 200.265C524.656 188.712 512.881 178.189 511.689 176.88C509.388 174.353 498.284 154.167 463.624 89.5C451.832 67.5 440.946 47.925 439.432 46C435.85 41.447 428.913 38.708 388.533 25.91C343.739 11.713 302.02 0 296.244 0C291.756 0 290.703 0.580006 278.663 9.68401ZM305.447 36.756C320.66 62.996 332.645 84.01 343.782 103.971L357.435 128.442L353.979 137.971C352.079 143.212 345.279 161.675 338.869 179C307.798 262.975 289.357 314.524 289.356 317.401C289.356 317.897 292.021 314.747 295.278 310.401C305.591 296.64 346.221 252.448 347.416 253.691C348.403 254.718 354.479 280.489 357.745 297.5C360.964 314.268 371.1 372.677 372.16 380.57L372.976 386.64L353.63 411.57C319.184 455.958 311.355 466.657 308.912 472.678C307.612 475.88 300.638 494.7 293.413 514.5C286.188 534.3 279.477 552.518 278.498 554.984C276.748 559.397 276.587 559.51 268.288 562.112C263.65 563.567 234.206 572.77 202.856 582.563L145.856 600.369L135.856 600.511C130.356 600.589 124.827 600.201 123.57 599.65C122.313 599.098 109.43 585.338 94.942 569.073C80.453 552.808 60.936 530.998 51.57 520.606C42.203 510.214 33.962 500.633 33.256 499.314C31.679 496.366 30.339 503.023 50.403 414.116L66.286 343.733L83.114 326.616C92.369 317.202 101.108 307.925 102.533 306C103.959 304.075 109.73 291.925 115.358 279C139.038 224.619 182.235 127.068 185.021 121.681C187.083 117.693 299.415 34.148 302.856 34.043C303.406 34.026 304.572 35.247 305.447 36.756ZM229.356 186.799C219.731 200.832 211.074 213.138 210.118 214.145C209.162 215.152 201.265 219.539 192.569 223.893C183.873 228.248 176.251 232.421 175.632 233.168C175.012 233.915 171.544 246.67 167.924 261.513C164.305 276.356 158.87 298.136 155.846 309.913C152.822 321.69 150.489 331.467 150.662 331.639C150.835 331.812 153.169 327.127 155.849 321.227C163.424 304.551 173.629 284.168 184.185 264.632C195.073 244.481 194.359 245.206 212.856 235.534C218.906 232.37 224.647 229.083 225.613 228.23C226.579 227.376 228.738 222.138 230.411 216.589C232.084 211.04 236.598 196.65 240.442 184.611C244.285 172.572 247.301 162.399 247.143 162.003C246.985 161.608 238.981 172.766 229.356 186.799ZM439.731 271.717L445.087 297.934L463.812 330.138C474.532 348.575 482.785 363.871 483.117 365.918C483.66 369.261 483.118 368.804 474.777 358.881C469.87 353.044 456.968 337.843 446.106 325.1C429.319 305.408 426.357 301.449 426.361 298.716C426.368 294.006 430.197 245.272 430.974 240L431.638 235.5L433.007 240.5C433.759 243.25 436.786 257.298 439.731 271.717ZM221.333 381.076C218.165 385.582 188.152 423.859 178.163 436.132L170.323 445.764L153.59 454.784C144.386 459.745 132.141 466.489 126.379 469.771L115.901 475.738L109.243 499.119C105.58 511.978 102.688 522.617 102.814 522.761C102.941 522.904 108.621 514.633 115.436 504.379C122.252 494.126 128.761 485.125 129.902 484.378C132.806 482.475 166.369 471.029 169.09 471.013C170.319 471.006 172.667 472.237 174.307 473.75C176.957 476.193 210.207 519.226 212.355 522.992C215.295 528.147 212.863 519.616 203.107 490.553C192.464 458.85 192.09 457.445 193.186 453.345C193.813 451.002 198.413 440.018 203.41 428.936C214.501 404.335 224.51 379.962 224.067 378.634C223.887 378.094 222.657 379.193 221.333 381.076ZM439.998 501.078C416.972 548.99 409.563 564 408.936 564C408.717 564 409.157 561.648 409.916 558.774C410.674 555.9 414.526 539.362 418.475 522.024C425.585 490.812 425.696 490.452 429.699 485.63C433.419 481.151 460.541 455.936 461.101 456.437C461.235 456.558 451.739 476.646 439.998 501.078Z" fill="black"/>
</svg>
